<svg width="32" height="32" fill="none" xmlns="http://www.w3.org/2000/svg">
<defs>
<symbol id="css3" viewBox="0 0 50 50" fill="#000000" fill-opacity="0">
  <title>css</title>
  <path class="st0" d="M5.3,2C4.8,2.1,4.4,2.6,4.5,3.1L8,42.5c0,0.4,0.3,0.7,0.7,0.8l16,4.6c0.2,0.1,0.4,0.1,0.6,0l16-4.6
	c0.4-0.1,0.7-0.4,0.7-0.8l3.5-39.4c0-0.3-0.1-0.6-0.3-0.8C45.1,2.1,44.8,2,44.5,2h-39C5.4,2,5.4,2,5.3,2L5.3,2z M13.4,29.6h5.5
	l0.1,3.4l5.7,1.9l5.7-1.9l0.4-6.2H18.7l-0.3-5.5h12.8l0.4-5.5H12.4L12,10.4h25.4l-0.7,11l-1,15.8l-11,3.6l-11-3.6L13.4,29.6z"/>
</symbol>

<symbol id="github" viewBox="0 0 50 50" fill="#000000" fill-opacity="0">
  <title>github</title>
 <path class="st0" d="M22.5,3.6C12.1,4.7,3.7,12.9,2.6,22.9c-1.1,10.4,5,19.8,14.2,23.3c0.7,0.2,1.4-0.2,1.4-1.1v-3.6
	c0,0-0.9,0.2-2,0.2c-3.2,0-4.5-2.7-4.7-4.2c-0.2-0.9-0.7-1.6-1.4-2.2c-0.7-0.2-0.9-0.2-0.9-0.4c0-0.4,0.7-0.4,0.9-0.4
	c1.4,0,2.5,1.6,2.9,2.2c1.1,1.8,2.5,2.2,3.2,2.2c0.9,0,1.6-0.2,2-0.4c0.2-1.6,0.9-3.1,2.3-4c-5.2-1.1-9-4-9-8.9
	c0-2.4,1.1-4.9,2.7-6.7c-0.2-0.4-0.5-1.6-0.5-3.1c0-0.9,0-2.2,0.7-3.6c0,0,3.2,0,6.3,2.9c1.1-0.4,2.7-0.7,4.3-0.7s3.2,0.2,4.5,0.7
	c2.9-2.9,6.3-2.9,6.3-2.9c0.5,1.3,0.5,2.7,0.5,3.6c0,1.8-0.2,2.7-0.5,3.1c1.6,1.8,2.7,4,2.7,6.7c0,4.9-3.8,7.8-9,8.9
	c1.4,1.1,2.3,3.1,2.3,5.1v5.8c0,0.7,0.7,1.3,1.6,1.1c8.3-3.3,14.2-11.3,14.2-20.7C47.5,12.5,36,2,22.5,3.6z"/>
</symbol>

<symbol id="html5" viewBox="0 0 50 50" fill="#000000" fill-opacity="0">
  <title>html5</title>
<path class="st0" d="M5.3,2C4.8,2.1,4.4,2.6,4.5,3.1L8,42.5c0,0.4,0.3,0.7,0.7,0.8l16,4.6c0.2,0.1,0.4,0.1,0.6,0l16-4.6
	c0.4-0.1,0.7-0.4,0.7-0.8l3.5-39.4c0-0.3-0.1-0.6-0.3-0.8C45.1,2.1,44.8,2,44.5,2H5.5C5.4,2,5.4,2,5.3,2C5.3,2,5.3,2,5.3,2z
	 M12.5,10.1c-0.5,0.1-0.9,0.6-0.8,1.1l1.3,14.8c0,0.5,0.5,0.9,1,0.9h16l-0.4,4.6l-4.5,1l-4.6-1l-0.2-1.6c0-0.5-0.5-0.9-1-0.9h-4.9
	c-0.3,0-0.6,0.1-0.7,0.3c-0.2,0.2-0.3,0.5-0.3,0.8l0.6,6.1c0,0.4,0.3,0.8,0.7,0.9l9.9,3l0.1,0c0.2,0.1,0.4,0.1,0.6,0L35.3,37
	c0.4-0.1,0.7-0.5,0.7-0.9l1.3-15c0-0.3-0.1-0.6-0.2-0.8S36.7,20,36.4,20h-17l-0.2-3.1h17.7c0.5,0,1-0.4,1-0.9l0.4-4.8
	c0-0.3-0.1-0.6-0.3-0.8c-0.2-0.2-0.5-0.3-0.7-0.3H12.7C12.7,10,12.6,10,12.5,10.1z"/>
</symbol>

<symbol id="javascript" viewBox="0 0 50 50" fill="#000000" fill-opacity="0" stroke-opacity="0.45">
  <title>javascript</title>
  <path class="st0" d="M6.7,4C5.2,4,4,5.2,4,6.7v36.7C4,44.8,5.2,46,6.7,46h36.7c1.5,0,2.7-1.2,2.7-2.7V6.7C46,5.2,44.8,4,43.3,4H6.7z
	 M23,23v12.6c0,1.9-0.7,2.4-2,2.4c-1.3,0-2.2-0.8-2.9-1.9L15,38c0.9,1.9,3.1,4,6.2,4c3.4,0,5.8-1.8,5.8-5.8V23H23z M35.5,23
	c-3.4,0-5.6,2.2-5.6,5c0,3.1,1.8,4.6,4.6,5.7l1,0.4c1.7,0.8,2.6,1.2,2.6,2.5c0,1.1-0.8,1.9-2.4,1.9c-1.9,0-2.8-1.3-3.6-2.6l-3,2
	c1.1,2.2,3.1,4,6.7,4c3.6,0,6.3-1.9,6.3-5.3c0-3.2-1.8-4.6-5.1-6l-1-0.4c-1.6-0.7-2.3-1.2-2.3-2.3c0-0.9,0.7-1.6,1.8-1.6
	c1.1,0,1.8,0.5,2.5,1.6l3-1.9C39.6,23.8,37.9,23,35.5,23z"/>
</symbol>

<symbol id="react" viewBox="0 0 50 50" fill="#000000" fill-opacity="0">
  <title>react</title>
 <path class="st0" d="M34.6,4c-0.8,0-1.6,0.1-2.4,0.4c-1.6,0.5-3.4,1.6-5.1,3c-0.7,0.6-1.4,1.2-2.1,1.9c-0.7-0.7-1.4-1.3-2-1.8
	c-1.8-1.4-3.5-2.5-5.1-3c-1.6-0.5-3.3-0.5-4.6,0.2s-2.1,2.2-2.5,3.9c-0.4,1.7-0.3,3.7,0,5.9c0.1,0.8,0.3,1.6,0.5,2.4
	c-0.8,0.2-1.5,0.5-2.2,0.7c-2.1,0.8-3.8,1.8-5,2.9S2,23.1,2,24.6s0.8,2.9,2.1,4.1s3,2.1,5,2.9c0.7,0.3,1.5,0.5,2.3,0.8
	c-0.3,1.1-0.5,2.2-0.7,3.2c-0.4,2.2-0.4,4.2,0,5.9c0.4,1.7,1.2,3.1,2.5,3.9c1.3,0.8,3,0.8,4.6,0.2s3.3-1.6,5.1-3
	c0.7-0.6,1.4-1.2,2.1-1.9c0.7,0.7,1.4,1.3,2.1,1.9c1.8,1.4,3.5,2.5,5.1,3s3.3,0.5,4.6-0.2s2.1-2.2,2.5-3.9s0.3-3.7,0-5.9
	c-0.2-1-0.4-2.1-0.7-3.2c0.8-0.3,1.7-0.5,2.4-0.8c2.1-0.8,3.8-1.8,5-2.9s2.1-2.5,2.1-4.1s-0.8-2.9-2.1-4.1c-1.2-1.2-3-2.1-5-2.9
	c-0.7-0.3-1.4-0.5-2.2-0.8c0.2-0.8,0.4-1.7,0.5-2.4c0.4-2.2,0.4-4.2,0-5.9c-0.4-1.7-1.2-3.1-2.5-3.9C36.1,4.2,35.3,4,34.6,4z
	 M34.5,6c0.5,0,0.9,0.1,1.3,0.3c0.7,0.4,1.2,1.2,1.5,2.5c0.3,1.3,0.3,3.1-0.1,5.2c-0.1,0.7-0.3,1.5-0.5,2.2c-2-0.5-4.3-0.9-6.7-1.1
	c-1.2-1.7-2.4-3.2-3.7-4.5c0.7-0.6,1.3-1.2,1.9-1.8c1.6-1.3,3.2-2.2,4.4-2.6C33.4,6.1,34,6,34.5,6z M15.5,6c0.5,0,1.1,0.1,1.7,0.3
	C18.5,6.7,20,7.6,21.6,9c0.6,0.5,1.3,1.1,1.9,1.7c-1.3,1.4-2.5,2.9-3.7,4.6c-2.4,0.2-4.6,0.6-6.6,1.1c-0.2-0.8-0.3-1.5-0.5-2.2
	c-0.3-2.1-0.3-3.9-0.1-5.2c0.3-1.3,0.8-2.1,1.5-2.5C14.6,6.2,15,6,15.5,6z M22.5,15c0.8-1,1.6-2,2.4-2.8c0.8,0.9,1.6,1.8,2.4,2.8
	 M25,17c1.4,0,2.7,0.1,4,0.2c0.9,1.3,1.8,2.6,2.6,4.1c0.7,1.3,1.4,2.5,2,3.8c-0.6,1.3-1.3,2.5-2,3.8c-0.6,1.1-1.3,2.2-2,3.2
	c-1.5,0.1-3,0.2-4.5,0.2c-1.6,0-3.1-0.1-4.6-0.2c-0.7-1-1.3-2.1-2-3.2c-0.7-1.3-1.4-2.5-2-3.8c0.6-1.3,1.3-2.5,2-3.8
	c0.8-1.4,1.7-2.8,2.6-4C22.3,17.1,23.6,17,25,17z M31.6,17.4c1.6,0.2,3.2,0.5,4.6,0.8c-0.4,1.4-1,2.9-1.6,4.4 M15.3,22.6
	c-0.6-1.5-1.2-3-1.6-4.3c1.4-0.3,3-0.6,4.6-0.8 M38.2,18.8c0.7,0.2,1.4,0.4,2,0.7c1.9,0.7,3.4,1.6,4.4,2.5s1.4,1.8,1.4,2.6
	s-0.4,1.7-1.4,2.6s-2.5,1.8-4.4,2.5c-0.7,0.3-1.5,0.5-2.3,0.8c-0.6-1.8-1.3-3.6-2.2-5.5C36.8,22.9,37.6,20.8,38.2,18.8z M11.8,18.8
	c0.6,2,1.4,4,2.4,6.2c-0.9,1.9-1.6,3.7-2.2,5.5c-0.8-0.2-1.5-0.5-2.2-0.7c-1.9-0.7-3.4-1.6-4.4-2.5S4,25.4,4,24.6s0.4-1.7,1.4-2.6
	s2.5-1.8,4.4-2.5C10.4,19.2,11.1,19,11.8,18.8z M25,20c-2.7,0-5,2.3-5,5s2.3,5,5,5s5-2.3,5-5S27.7,20,25,20z M34.6,27.4
	c0.5,1.2,1,2.5,1.4,3.6c-1.2,0.3-2.5,0.5-3.8,0.7 M17.8,31.7c-1.3-0.2-2.6-0.4-3.8-0.7c0.4-1.2,0.8-2.4,1.4-3.6 M13.4,32.9
	c1.8,0.4,3.8,0.8,5.9,1c1.4,2,2.8,3.8,4.3,5.4c-0.7,0.6-1.3,1.2-1.9,1.7c-1.6,1.3-3.2,2.2-4.5,2.6s-2.2,0.4-3-0.1
	c-0.7-0.4-1.2-1.2-1.5-2.5c-0.3-1.3-0.3-3.1,0.1-5.2C12.9,35,13.1,34,13.4,32.9z M36.6,32.9c0.3,1,0.5,2.1,0.7,3
	c0.3,2.1,0.3,3.9,0.1,5.2s-0.8,2.1-1.5,2.5s-1.7,0.5-3,0.1c-1.3-0.4-2.8-1.3-4.5-2.6c-0.6-0.5-1.3-1.1-1.9-1.8
	c1.5-1.6,2.9-3.4,4.3-5.4C32.8,33.7,34.7,33.4,36.6,32.9z M28,34.2c-1,1.3-2.1,2.6-3.1,3.6c-1-1.1-2.1-2.3-3.1-3.7"/>
</symbol>

<symbol id="sass" viewBox="0 0 50 50" fill="#000000" fill-opacity="0">
  <title>sass</title>
  <path class="st0" d="M25,2C12.3,2,2,12.3,2,25s10.3,23,23,23s23-10.3,23-23S37.7,2,25,2z M30.6,9c-1.7,0-3.6,0.4-5.5,1
	c-3.5,1.2-7.3,3.2-10,5.8c-3.2,3-3.8,5.7-3.6,6.8c0.8,3.9,6.1,6.4,8.3,8.3v0c-0.6,0.3-5.4,2.7-6.5,5.2c-1.2,2.6,0.2,4.4,1.1,4.7
	c2.8,0.8,5.6-0.6,7.2-2.9c1.5-2.2,1.4-5.1,0.7-6.5c0.9-0.2,1.9-0.3,3.2-0.2c3.7,0.4,4.4,2.8,4.3,3.7s-0.9,1.5-1.2,1.7
	s-0.3,0.2-0.3,0.3c0,0.2,0.2,0.2,0.4,0.1c0.3-0.1,2-0.8,2-2.6c0.1-2.3-2.1-4.8-5.9-4.8c-1.6,0-2.6,0.2-3.3,0.4
	c-0.1-0.1-0.1-0.1-0.2-0.2c-2.4-2.5-6.8-4.3-6.6-7.8c0.1-1.2,0.5-4.5,8.5-8.5c6.5-3.3,11.8-2.4,12.7-0.4c1.3,2.8-2.8,8.1-9.6,8.9
	c-2.6,0.3-3.9-0.7-4.3-1.1c-0.4-0.4-0.4-0.4-0.5-0.3c-0.2,0.1-0.1,0.5,0,0.7c0.2,0.5,1,1.5,2.4,1.9c1.2,0.4,4.3,0.6,8-0.8
	c4.1-1.6,7.3-6,6.4-9.7C37.6,10.3,34.5,8.9,30.6,9z M20.8,32.1c0.3,1.1,0.3,2.2,0,3.2c0,0.1-0.1,0.2-0.1,0.3s-0.1,0.2-0.1,0.3
	c-0.2,0.5-0.6,1-1,1.4c-1.2,1.3-2.9,1.8-3.7,1.4c-0.8-0.5-0.4-2.4,1-3.9c1.5-1.6,3.7-2.7,3.7-2.7l0,0C20.7,32.1,20.7,32.1,20.8,32.1
	z"/>
</symbol>

<symbol id="vue" viewBox="0 0 50 50" fill="#000000" fill-opacity="0">
  <title>vue-dot-js</title>
  <polygon class="st0" points="25,14.7 19,4.3 0.9,4.3 25,45.7 49.1,4.3 31,4.3 "/>
  <polygon class="st1" points="31,4.3 25,14.7 19,4.3 10.3,4.3 25,29.6 39.7,4.3 "/>
</symbol>

<symbol id="nuxt" viewBox="0 0 400 400" fill-rule="nonzero" fill="none">
  <title>nuxt</title>
    <g fill-rule="nonzero" transform="translate(0 50)" fill="none"  >
    <path d="M227.92099 83.45116l-13.6889 24.10141-46.8148-82.44693L23.7037 278.17052h97.3037c0 13.31084 10.61252 24.10142 23.70371 24.10142H23.70371c-8.46771 0-16.29145-4.59601-20.5246-12.05272-4.23315-7.4567-4.23272-16.64312.00114-24.0994L146.89383 13.05492c4.23415-7.45738 12.0596-12.05138 20.5284-12.05138 8.46878 0 16.29423 4.594 20.52839 12.05138l39.97037 70.39623z" fill="transparent"/>
    <path d="M331.6642 266.11981l-90.05432-158.56724-13.6889-24.10141-13.68888 24.10141-90.04445 158.56724c-4.23385 7.45629-4.23428 16.64271-.00113 24.09941 4.23314 7.4567 12.05689 12.05272 20.5246 12.05272h166.4c8.46946 0 16.29644-4.591 20.532-12.04837 4.23555-7.45736 4.23606-16.64592.00132-24.10376h.01976zM144.7111 278.17052L227.921 131.65399l83.19012 146.51653h-166.4z" fill="transparent"/>
    <path d="M396.04938 290.22123c-4.23344 7.45557-12.05656 12.0507-20.52345 12.0507H311.1111c13.0912 0 23.7037-10.79057 23.7037-24.10141h40.66173L260.09877 74.98553l-18.4889 32.56704L227.921 83.45116l11.65432-20.51634c4.23416-7.45738 12.0596-12.05138 20.5284-12.05138 8.46879 0 16.29423 4.594 20.52839 12.05138l115.41728 203.185c4.23426 7.457 4.23426 16.6444 0 24.1014z" fill="transparent"/>
  </g>
</symbol>

<!-- TODO In case modify view  source https://vecta.io/app/link?stencil=stencil_97&symbol=k9hiC0UwOZM0AUbZ6RVh9U&name=Tailwind%20CSS-icon-->
<symbol id="tailwind" viewBox="0 -7 64 55" stroke="#000" stroke-linecap="round" stroke-linejoin="round" fill="black" fill-opacity="0.59" fill-rule="evenodd">
  <title>tailwind</title>
<path d="M16.5 13.3C18.633 4.767 23.967.5 32.5.5c12.8 0 14.4 9.6 20.8 11.2 4.267 1.067 8-.533 11.2-4.8-2.133 8.533-7.467 12.8-16 12.8-12.8 0-14.4-9.6-20.8-11.2-4.267-1.067-8 .533-11.2 4.8zM.5 32.5c2.133-8.533 7.467-12.8 16-12.8 12.8 0 14.4 9.6 20.8 11.2 4.267 1.067 8-.533 11.2-4.8-2.133 8.533-7.467 12.8-16 12.8-12.8 0-14.4-9.6-20.8-11.2-4.267-1.067-8 .533-11.2 4.8z" fill="none"/>
</symbol>
</defs>
</svg>