<?xml version="1.0" encoding="utf-8"?>
<!-- Generator: Adobe Illustrator 22.1.0, SVG Export Plug-In . SVG Version: 6.00 Build 0)  -->
<svg version="1.1" id="Layer_1" xmlns="http://www.w3.org/2000/svg" xmlns:xlink="http://www.w3.org/1999/xlink" x="0px" y="0px"
	 viewBox="0 0 32 32" style="enable-background:new 0 0 32 32;" xml:space="preserve">
<style type="text/css">
	.st0{fill:url(#SVGID_1_);}
</style>
<linearGradient id="SVGID_1_" gradientUnits="userSpaceOnUse" x1="6.683813e-07" y1="43.9063" x2="31.3292" y2="-8.3087" gradientTransform="matrix(1 0 0 -1 0 34)">
	<stop  offset="0" style="stop-color:#2383AE"/>
	<stop  offset="1" style="stop-color:#6DD7B9"/>
</linearGradient>
<path class="st0" d="M7.8,13.1c1-4.2,3.7-6.3,7.8-6.3c6.3,0,7,4.7,10.2,5.5c2.1,0.5,3.9-0.3,5.5-2.3c-1,4.2-3.7,6.3-7.8,6.3
	c-6.3,0-7-4.7-10.2-5.5C11.2,10.2,9.4,11,7.8,13.1z M0,22.5c1-4.2,3.7-6.3,7.8-6.3c6.3,0,7,4.7,10.2,5.5c2.1,0.5,3.9-0.3,5.5-2.3
	c-1,4.2-3.7,6.3-7.8,6.3c-6.3,0-7-4.7-10.2-5.5C3.4,19.6,1.6,20.4,0,22.5z"/>
</svg>
