<?xml version="1.0" encoding="utf-8"?>
<!-- Generator: Adobe Illustrator 22.1.0, SVG Export Plug-In . SVG Version: 6.00 Build 0)  -->
<svg version="1.1" id="Layer_1" focusable="false" xmlns="http://www.w3.org/2000/svg" xmlns:xlink="http://www.w3.org/1999/xlink"
	 x="0px" y="0px" viewBox="0 0 32 32" style="enable-background:new 0 0 32 32;" xml:space="preserve">
<style type="text/css">
	.st0{fill:url(#SVGID_1_);}
</style>
<linearGradient id="SVGID_1_" gradientUnits="userSpaceOnUse" x1="-126.5073" y1="295.2064" x2="-126.3788" y2="295.1619" gradientTransform="matrix(256 0 0 -153.6 32385 45356.2031)">
	<stop  offset="0" style="stop-color:#2298BD"/>
	<stop  offset="1" style="stop-color:#0ED7B5"/>
</linearGradient>
<path class="st0" d="M16,6.4c-4.3,0-6.9,2.1-8,6.4c1.6-2.1,3.5-2.9,5.6-2.4c1.2,0.3,2.1,1.2,3.1,2.2C18.2,14.2,20,16,24,16
	c4.3,0,6.9-2.1,8-6.4c-1.6,2.1-3.5,2.9-5.6,2.4c-1.2-0.3-2.1-1.2-3.1-2.2C21.8,8.2,20,6.4,16,6.4z M8,16c-4.3,0-6.9,2.1-8,6.4
	c1.6-2.1,3.5-2.9,5.6-2.4c1.2,0.3,2.1,1.2,3.1,2.2c1.6,1.6,3.4,3.4,7.3,3.4c4.3,0,6.9-2.1,8-6.4c-1.6,2.1-3.5,2.9-5.6,2.4
	c-1.2-0.3-2.1-1.2-3.1-2.2C13.8,17.8,12,16,8,16z"/>
</svg>
