<svg width="42" height="42" viewBox="0 0 42 42" fill="none" xmlns="http://www.w3.org/2000/svg">
<path fill-rule="evenodd" clip-rule="evenodd" d="M6 6H6.5H12.5H13V6.5V12.5V13H12.5H6.5H6V12.5V6.5V6ZM7 7V12H12V7H7ZM16.5 27H17H23H23.5V27.5V33.5V34H23H17H16.5V33.5V27.5V27ZM17.5 28V33H22.5V28H17.5ZM6 27H6.5H12.5H13V27.5V33.5V34H12.5H6.5H6V33.5V27.5V27ZM7 28V33H12V28H7ZM6 16.5H6.5H12.5H13V17V23V23.5H12.5H6.5H6V23V17V16.5ZM7 17.5V22.5H12V17.5H7ZM16.5 16.5H17H23H23.5V17V23V23.5H23H17H16.5V23V17V16.5ZM17.5 17.5V22.5H22.5V17.5H17.5ZM27 6H27.5H33.5H34V6.5V12.5V13H33.5H27.5H27V12.5V6.5V6ZM28 7V12H33V7H28ZM16.5 6H17H23H23.5V6.5V12.5V13H23H17H16.5V12.5V6.5V6ZM17.5 7V12H22.5V7H17.5ZM27 16.5H27.5H33.5H34V17V23V23.5H33.5H27.5H27V23V17V16.5ZM28 17.5V22.5H33V17.5H28ZM27 27H27.5H33.5H34V27.5V33.5V34H33.5H27.5H27V33.5V27.5V27ZM28 28V33H33V28H28Z" fill="black" fill-opacity="0.59"/>
</svg>
