<svg width="44" height="44" viewBox="0 0 44 44" fill="none" xmlns="http://www.w3.org/2000/svg">
<path d="M22.0002 1C10.4036 1 1 10.6396 1 22.5315C1 32.0448 7.01719 40.1159 15.3612 42.963C16.4107 43.1623 16.796 42.4959 16.796 41.9272C16.796 41.4137 16.7766 39.7176 16.7675 37.9184C10.9252 39.2209 9.69246 35.3779 9.69246 35.3779C8.73718 32.8891 7.36077 32.2274 7.36077 32.2274C5.45543 30.891 7.50439 30.9185 7.50439 30.9185C9.61317 31.07 10.7236 33.1373 10.7236 33.1373C12.5966 36.4291 15.6363 35.4774 16.8346 34.9272C17.0231 33.5359 17.5674 32.5854 18.1679 32.048C13.5035 31.5036 8.60017 29.6573 8.60017 21.4069C8.60017 19.0561 9.42052 17.1353 10.7639 15.6274C10.5458 15.0848 9.82704 12.8951 10.9673 9.92929C10.9673 9.92929 12.7308 9.3506 16.7439 12.1364C18.419 11.6593 20.2155 11.4201 22.0002 11.4119C23.7848 11.4201 25.5827 11.6593 27.261 12.1364C31.2692 9.3506 33.0302 9.92929 33.0302 9.92929C34.1733 12.8951 33.4542 15.0848 33.2361 15.6274C34.5826 17.1353 35.3974 19.0561 35.3974 21.4069C35.3974 29.6769 30.4847 31.4979 25.8084 32.0309C26.5617 32.6991 27.2328 34.0095 27.2328 36.0183C27.2328 38.8989 27.2085 41.2176 27.2085 41.9272C27.2085 42.5002 27.5865 43.1716 28.651 42.9601C36.9905 40.1098 43 32.0416 43 22.5315C43 10.6396 33.5978 1 22.0002 1" stroke="black" stroke-opacity="0.59"/>
<path fill-rule="evenodd" clip-rule="evenodd" d="M8.95401 31.9147C8.90776 32.022 8.74362 32.0537 8.59409 31.9803C8.44177 31.91 8.35622 31.7642 8.40561 31.6569C8.45081 31.5467 8.6153 31.5164 8.76727 31.5895C8.91993 31.6601 9.00687 31.8073 8.95401 31.9147" fill="#6F6F6F"/>
<path fill-rule="evenodd" clip-rule="evenodd" d="M9.80457 32.8874C9.70441 32.9826 9.50863 32.9384 9.37579 32.7879C9.23842 32.6378 9.21269 32.437 9.31423 32.3404C9.41752 32.2452 9.60739 32.2898 9.7451 32.4399C9.88246 32.5918 9.90924 32.7911 9.80457 32.8874" fill="#6F6F6F"/>
<path fill-rule="evenodd" clip-rule="evenodd" d="M10.6324 34.1275C10.5037 34.2191 10.2934 34.1332 10.1633 33.9417C10.0346 33.7502 10.0346 33.5206 10.1661 33.4286C10.2965 33.3366 10.5037 33.4194 10.6355 33.6094C10.7639 33.8037 10.7639 34.0337 10.6324 34.1275" fill="#6F6F6F"/>
<path fill-rule="evenodd" clip-rule="evenodd" d="M11.7669 35.3255C11.6518 35.4557 11.4066 35.4207 11.2272 35.2432C11.0436 35.0695 10.9924 34.8231 11.1079 34.693C11.2244 34.5625 11.471 34.5992 11.6518 34.7754C11.834 34.9486 11.8897 35.1968 11.7669 35.3255" fill="#6F6F6F"/>
<path fill-rule="evenodd" clip-rule="evenodd" d="M13.3316 36.0211C13.2808 36.1898 13.0447 36.2664 12.8068 36.1948C12.5693 36.121 12.4138 35.9234 12.4618 35.753C12.5112 35.5833 12.7484 35.5034 12.988 35.5801C13.2251 35.6535 13.3809 35.8496 13.3316 36.0211" fill="#6F6F6F"/>
<path fill-rule="evenodd" clip-rule="evenodd" d="M15.0504 36.1502C15.0563 36.3278 14.8546 36.475 14.6049 36.4779C14.3538 36.484 14.1507 36.3403 14.1479 36.1656C14.1479 35.9862 14.3451 35.8404 14.5962 35.8361C14.8459 35.8311 15.0504 35.9737 15.0504 36.1502" fill="#6F6F6F"/>
<path fill-rule="evenodd" clip-rule="evenodd" d="M16.6498 35.871C16.6797 36.0443 16.5061 36.2223 16.2582 36.2693C16.0144 36.3153 15.7887 36.2083 15.7578 36.0365C15.7275 35.8589 15.9042 35.681 16.1476 35.635C16.3959 35.5908 16.6181 35.6949 16.6498 35.871" fill="#6F6F6F"/>
</svg>
