<svg width="44" height="44" viewBox="0 0 44 44" fill="none" xmlns="http://www.w3.org/2000/svg">
<path d="M1.5 22C1.5 10.6782 10.6782 1.5 22 1.5V0.5C10.1259 0.5 0.5 10.1259 0.5 22H1.5ZM22 1.5C33.3218 1.5 42.5 10.6782 42.5 22H43.5C43.5 10.1259 33.8741 0.5 22 0.5V1.5ZM42.5 22C42.5 33.3218 33.3218 42.5 22 42.5V43.5C33.8741 43.5 43.5 33.8741 43.5 22H42.5ZM22 42.5C10.6782 42.5 1.5 33.3218 1.5 22H0.5C0.5 33.8741 10.1259 43.5 22 43.5V42.5Z" fill="black" fill-opacity="0.59"/>
<path d="M21.6803 12.003L21.6801 12.503L21.6801 12.503L21.6803 12.003ZM20.9863 12.0031H20.4863V12.5039L20.9871 12.5031L20.9863 12.0031ZM22.0905 12.0031L22.0904 12.5031H22.0905V12.0031ZM27.0642 12.0739L27.0871 11.5744L27.0869 11.5744L27.0642 12.0739ZM29.3495 12.4977L29.5306 12.0317L29.5305 12.0316L29.3495 12.4977ZM30.764 13.4183L30.4104 13.7718L30.4105 13.7719L30.764 13.4183ZM31.6851 14.8338L32.1511 14.6526L32.151 14.6524L31.6851 14.8338ZM32.109 17.1186L32.6085 17.0959L32.6085 17.0959L32.109 17.1186ZM32.109 27.063L32.6085 27.0858L32.6085 27.0857L32.109 27.063ZM31.6851 29.3477L31.2191 29.1666L31.219 29.1667L31.6851 29.3477ZM30.764 30.7617L30.4106 30.408L30.4105 30.4081L30.764 30.7617ZM29.3495 31.6823L29.1686 31.2162L29.1677 31.2165L29.3495 31.6823ZM27.0642 32.1064L27.0869 32.6059L27.0871 32.6059L27.0642 32.1064ZM17.1168 32.1064L17.0938 32.6059L17.0941 32.6059L17.1168 32.1064ZM14.8312 31.682L14.6502 32.1481L14.6504 32.1482L14.8312 31.682ZM13.4158 30.7614L13.0622 31.115L13.0622 31.115L13.4158 30.7614ZM12.4947 29.3467L12.0286 29.5279L12.0287 29.528L12.4947 29.3467ZM12.0708 27.0619L11.5713 27.0846L11.5713 27.0847L12.0708 27.0619ZM12.0708 17.1155L11.5713 17.0927L11.5713 17.0928L12.0708 17.1155ZM12.4947 14.8302L12.0286 14.6492L12.0286 14.6492L12.4947 14.8302ZM13.4158 13.4147L13.7693 13.7683L13.7693 13.7683L13.4158 13.4147ZM14.8312 12.4936L15.0126 12.9596L15.0129 12.9594L14.8312 12.4936ZM17.1168 12.0692L17.0942 11.5697L17.0939 11.5698L17.1168 12.0692ZM20.9863 12H21.4863V11.4994L20.9858 11.5L20.9863 12ZM28.6608 14.0469V14.5469H29.1608V14.0469H28.6608ZM28.6608 14.0464V13.5464H28.1608V14.0464H28.6608ZM22.0903 15.7726L22.0903 15.2726L22.0903 15.2726L22.0903 15.7726ZM21.6805 11.503C21.4317 11.5028 21.2006 11.5027 20.9856 11.5031L20.9871 12.5031C21.2009 12.5027 21.431 12.5028 21.6801 12.503L21.6805 11.503ZM22.0907 11.5031L21.6804 11.503L21.6801 12.503L22.0904 12.5031L22.0907 11.5031ZM27.0869 11.5744C25.7775 11.5149 25.3788 11.5031 22.0905 11.5031V12.5031C25.375 12.5031 25.7554 12.5149 27.0415 12.5733L27.0869 11.5744ZM29.5305 12.0316C29.047 11.8439 28.3423 11.6318 27.0871 11.5744L27.0414 12.5733C28.1863 12.6257 28.7843 12.8146 29.1686 12.9638L29.5305 12.0316ZM31.1177 13.0649C30.6375 12.5844 30.169 12.2796 29.5306 12.0317L29.1685 12.9638C29.6789 13.162 30.0294 13.3906 30.4104 13.7718L31.1177 13.0649ZM32.151 14.6524C31.9027 14.0145 31.5981 13.5453 31.1176 13.0648L30.4105 13.7719C30.7915 14.1529 31.0203 14.5044 31.2192 15.0152L32.151 14.6524ZM32.6085 17.0959C32.5513 15.8405 32.3389 15.1357 32.1511 14.6526L31.2191 15.015C31.3682 15.3986 31.5574 15.9965 31.6095 17.1413L32.6085 17.0959ZM32.6808 22.0908C32.6808 18.8037 32.668 18.4049 32.6085 17.0959L31.6095 17.1413C31.668 18.4274 31.6808 18.8082 31.6808 22.0908H32.6808ZM32.6085 27.0857C32.668 25.7766 32.6808 25.3779 32.6808 22.0908H31.6808C31.6808 25.3734 31.668 25.7542 31.6095 27.0403L32.6085 27.0857ZM32.1511 29.5289C32.339 29.0458 32.5511 28.341 32.6085 27.0858L31.6095 27.0401C31.5572 28.1851 31.3682 28.783 31.2191 29.1666L32.1511 29.5289ZM31.1175 31.1154C31.5976 30.6355 31.903 30.1677 32.1512 29.5288L31.219 29.1667C31.021 29.6766 30.792 30.0268 30.4106 30.408L31.1175 31.1154ZM29.5305 32.1484C30.1694 31.9003 30.6373 31.5955 31.1176 31.1153L30.4105 30.4081C30.0291 30.7895 29.679 31.018 29.1686 31.2162L29.5305 32.1484ZM27.0871 32.6059C28.3419 32.5485 29.0475 32.337 29.5314 32.148L29.1677 31.2165C28.7849 31.366 28.1867 31.5546 27.0414 31.6069L27.0871 32.6059ZM22.0905 32.6782C25.3792 32.6782 25.7779 32.6654 27.0869 32.6059L27.0415 31.6069C25.7555 31.6654 25.3747 31.6782 22.0905 31.6782V32.6782ZM17.0941 32.6059C18.4031 32.6654 18.8016 32.6782 22.0905 32.6782V31.6782C18.8061 31.6782 18.4256 31.6654 17.1395 31.6069L17.0941 32.6059ZM14.6504 32.1482C15.134 32.3358 15.8386 32.548 17.0938 32.6059L17.1399 31.607C15.9948 31.5541 15.3968 31.3652 15.0121 31.2159L14.6504 32.1482ZM13.0622 31.115C13.5427 31.5955 14.012 31.9002 14.6502 32.1481L15.0123 31.2159C14.5017 31.0176 14.1504 30.789 13.7693 30.4079L13.0622 31.115ZM12.0287 29.528C12.2772 30.1666 12.5819 30.6347 13.0622 31.115L13.7693 30.4079C13.388 30.0266 13.1594 29.6761 12.9606 29.1654L12.0287 29.528ZM11.5713 27.0847C11.6284 28.34 11.8408 29.0448 12.0286 29.5279L12.9607 29.1656C12.8115 28.7819 12.6224 28.184 12.5703 27.0392L11.5713 27.0847ZM11.5 22.0877C11.5 25.3765 11.5118 25.7754 11.5713 27.0846L12.5703 27.0392C12.5118 25.7533 12.5 25.3727 12.5 22.0877H11.5ZM11.5713 17.0928C11.5118 18.402 11.5 18.7989 11.5 22.0877H12.5C12.5 18.8027 12.5118 18.4241 12.5703 17.1382L11.5713 17.0928ZM12.0286 14.6492C11.8408 15.1327 11.6287 15.8374 11.5713 17.0927L12.5703 17.1384C12.6226 15.9934 12.8115 15.3955 12.9607 15.0112L12.0286 14.6492ZM13.0622 13.0612C12.5819 13.5415 12.2766 14.0107 12.0286 14.6492L12.9607 15.0112C13.1589 14.5009 13.388 14.1495 13.7693 13.7683L13.0622 13.0612ZM14.6499 12.0277C14.0119 12.276 13.5427 12.5806 13.0622 13.0612L13.7693 13.7683C14.1504 13.3872 14.5018 13.1584 15.0126 12.9596L14.6499 12.0277ZM17.0939 11.5698C15.839 11.6274 15.1338 11.8389 14.6495 12.0278L15.0129 12.9594C15.3964 12.8099 15.9944 12.6213 17.1398 12.5687L17.0939 11.5698ZM20.9858 11.5C18.6869 11.5026 18.2392 11.518 17.0942 11.5697L17.1394 12.5687C18.2654 12.5179 18.6977 12.5026 20.9869 12.5L20.9858 11.5ZM21.4863 12.0031V12H20.4863V12.0031H21.4863ZM27.6837 15.5234C27.6837 14.9841 28.1212 14.5469 28.6608 14.5469V13.5469C27.5695 13.5469 26.6837 14.4313 26.6837 15.5234H27.6837ZM28.6608 16.5004C28.1215 16.5004 27.6837 16.0627 27.6837 15.5234H26.6837C26.6837 16.615 27.5692 17.5004 28.6608 17.5004V16.5004ZM29.6378 15.5234C29.6378 16.0627 29.2001 16.5004 28.6608 16.5004V17.5004C29.7524 17.5004 30.6378 16.615 30.6378 15.5234H29.6378ZM28.6608 14.5464C29.2001 14.5464 29.6378 14.9841 29.6378 15.5234H30.6378C30.6378 14.4318 29.7524 13.5464 28.6608 13.5464V14.5464ZM29.1608 14.0469V14.0464H28.1608V14.0469H29.1608ZM22.0903 15.2726C18.3235 15.2728 15.2695 18.3268 15.2695 22.0936H16.2695C16.2695 18.8791 18.8758 16.2728 22.0903 16.2726L22.0903 15.2726ZM28.9105 22.0936C28.9105 18.3268 25.8573 15.2726 22.0903 15.2726V16.2726C25.3048 16.2726 27.9105 18.8789 27.9105 22.0936H28.9105ZM22.0905 28.9133C25.8574 28.9133 28.9105 25.8606 28.9105 22.0936H27.9105C27.9105 25.3082 25.3052 27.9133 22.0905 27.9133V28.9133ZM15.2695 22.0936C15.2695 25.8607 18.3237 28.9133 22.0905 28.9133V27.9133C18.8758 27.9133 16.2695 25.3081 16.2695 22.0936H15.2695Z" fill="black" fill-opacity="0.59"/>
<path fill-rule="evenodd" clip-rule="evenodd" d="M22.001 18.2667C24.0627 18.2667 25.7343 19.9381 25.7343 22.0001C25.7343 24.0619 24.0627 25.7335 22.001 25.7335C19.939 25.7335 18.2676 24.0619 18.2676 22.0001C18.2676 19.9381 19.939 18.2667 22.001 18.2667V18.2667Z" stroke="black" stroke-opacity="0.59"/>
</svg>
