<svg width="44" height="44" viewBox="0 0 44 44" fill="none" xmlns="http://www.w3.org/2000/svg">
<path d="M12.2 16.0284H11.7V16.3197L11.9533 16.4634L12.2 16.0284ZM32.386 15.28L32.886 15.288V15.28H32.386ZM32.3726 16.12L32.6176 16.5558L32.8679 16.4151L32.8725 16.128L32.3726 16.12ZM32.3726 18.64L32.8726 18.6393L32.8714 17.8006L32.1342 18.2005L32.3726 18.64ZM12.2134 18.64L12.7134 18.6407L12.7141 18.14H12.2134V18.64ZM12.2 28.72L11.7 28.7193V28.72H12.2ZM32.386 28.72L32.886 28.72L32.886 28.7193L32.386 28.72ZM42.5 22C42.5 33.3218 33.3218 42.5 22 42.5V43.5C33.8741 43.5 43.5 33.8741 43.5 22H42.5ZM22 1.5C33.3218 1.5 42.5 10.6782 42.5 22H43.5C43.5 10.1259 33.8741 0.5 22 0.5V1.5ZM1.5 22C1.5 10.6782 10.6782 1.5 22 1.5V0.5C10.1259 0.5 0.5 10.1259 0.5 22H1.5ZM22 42.5C10.6782 42.5 1.5 33.3218 1.5 22H0.5C0.5 33.8741 10.1259 43.5 22 43.5V42.5ZM12.2 16.0284C11.9533 16.4634 11.9534 16.4634 11.9534 16.4635C11.9535 16.4635 11.9536 16.4636 11.9538 16.4636C11.954 16.4638 11.9545 16.464 11.955 16.4643C11.9561 16.4649 11.9576 16.4658 11.9597 16.467C11.9639 16.4694 11.9701 16.4729 11.9782 16.4775C11.9944 16.4866 12.0185 16.5002 12.0498 16.5179C12.1126 16.5532 12.2046 16.605 12.3223 16.6708C12.5575 16.8024 12.8952 16.9902 13.3055 17.2156C14.1258 17.6662 15.2375 18.2674 16.4015 18.8691C17.5641 19.47 18.7851 20.0747 19.8224 20.5303C20.3406 20.7579 20.8202 20.9515 21.2279 21.0892C21.6185 21.2211 21.9983 21.3214 22.2926 21.3214V20.3214C22.1767 20.3214 21.9334 20.2719 21.5478 20.1417C21.1793 20.0173 20.7295 19.8365 20.2246 19.6147C19.2157 19.1716 18.0161 18.578 16.8607 17.9808C15.7065 17.3842 14.6027 16.7872 13.7869 16.3391C13.3792 16.1151 13.0438 15.9285 12.8104 15.798C12.6937 15.7327 12.6026 15.6815 12.5407 15.6467C12.5098 15.6292 12.4861 15.6159 12.4703 15.6069C12.4624 15.6024 12.4564 15.5991 12.4524 15.5968C12.4505 15.5957 12.449 15.5949 12.448 15.5943C12.4475 15.594 12.4471 15.5938 12.4469 15.5937C12.4468 15.5936 12.4467 15.5936 12.4467 15.5935C12.4466 15.5935 12.4466 15.5935 12.2 16.0284ZM11.7 15.28V16.0284H12.7V15.28H11.7ZM13.8816 13.1C12.6768 13.1 11.7 14.0762 11.7 15.28H12.7C12.7 14.6291 13.2284 14.1 13.8816 14.1V13.1ZM30.7035 13.1H13.8816V14.1H30.7035V13.1ZM32.886 15.28C32.886 14.076 31.909 13.1 30.7035 13.1V14.1C31.3577 14.1 31.886 14.6293 31.886 15.28H32.886ZM32.8725 16.128L32.8859 15.288L31.8861 15.272L31.8726 16.112L32.8725 16.128ZM22.2926 21.3214C22.593 21.3214 22.9768 21.2247 23.3747 21.0946C23.7878 20.9596 24.2706 20.7695 24.7904 20.5462C25.8307 20.0991 27.0482 19.5057 28.2045 18.9161C29.3622 18.3258 30.4651 17.7359 31.2782 17.2939C31.6849 17.0728 32.0193 16.8885 32.2523 16.7593C32.3688 16.6948 32.4599 16.644 32.522 16.6093C32.5531 16.592 32.5769 16.5787 32.593 16.5697C32.601 16.5651 32.6071 16.5617 32.6113 16.5594C32.6133 16.5582 32.6149 16.5574 32.616 16.5568C32.6165 16.5565 32.6169 16.5562 32.6172 16.5561C32.6173 16.556 32.6174 16.5559 32.6175 16.5559C32.6176 16.5558 32.6176 16.5558 32.3726 16.12C32.1275 15.6842 32.1275 15.6842 32.1274 15.6842C32.1274 15.6842 32.1273 15.6843 32.1272 15.6844C32.1269 15.6845 32.1266 15.6847 32.1261 15.685C32.1251 15.6855 32.1237 15.6863 32.1217 15.6874C32.1178 15.6896 32.1119 15.6929 32.1041 15.6973C32.0884 15.7061 32.065 15.7192 32.0344 15.7363C31.9732 15.7705 31.8831 15.8207 31.7676 15.8847C31.5366 16.0127 31.2045 16.1957 30.8005 16.4153C29.9923 16.8548 28.8976 17.4402 27.7502 18.0253C26.6015 18.611 25.4064 19.193 24.3955 19.6274C23.8897 19.8448 23.4372 20.0221 23.064 20.1441C22.6755 20.2711 22.422 20.3214 22.2926 20.3214V21.3214ZM22.2926 23.6314C22.5971 23.6314 22.984 23.5411 23.3893 23.4162C23.8076 23.2873 24.2938 23.1059 24.8156 22.8924C25.8599 22.4652 27.0751 21.8982 28.2267 21.3348C29.3797 20.7708 30.4753 20.2072 31.2823 19.7848C31.686 19.5735 32.0177 19.3974 32.2487 19.274C32.3642 19.2124 32.4546 19.1638 32.5162 19.1307C32.5469 19.1141 32.5705 19.1014 32.5865 19.0928C32.5944 19.0885 32.6005 19.0852 32.6046 19.083C32.6066 19.0819 32.6082 19.081 32.6093 19.0804C32.6098 19.0801 32.6102 19.0799 32.6105 19.0798C32.6106 19.0797 32.6107 19.0796 32.6108 19.0796C32.6109 19.0796 32.6109 19.0795 32.3726 18.64C32.1342 18.2005 32.1342 18.2005 32.1341 18.2005C32.1341 18.2005 32.134 18.2006 32.1339 18.2006C32.1337 18.2008 32.1333 18.201 32.1328 18.2012C32.1319 18.2017 32.1304 18.2025 32.1285 18.2036C32.1246 18.2057 32.1188 18.2088 32.111 18.213C32.0955 18.2214 32.0724 18.2339 32.0421 18.2502C31.9814 18.2829 31.8921 18.3308 31.7777 18.392C31.5487 18.5142 31.2195 18.689 30.8186 18.8988C30.0166 19.3186 28.9295 19.8778 27.7872 20.4366C26.6436 20.9961 25.4512 21.5519 24.437 21.9668C23.9294 22.1745 23.4736 22.3439 23.0948 22.4606C22.7029 22.5813 22.4376 22.6314 22.2926 22.6314V23.6314ZM12.2134 18.14C11.7296 18.5136 11.9713 19.0775 11.9739 19.0789C11.9748 19.0794 11.9761 19.0801 11.9766 19.0804C11.9775 19.0809 11.9784 19.0813 11.979 19.0817C11.9804 19.0824 11.9822 19.0834 11.9843 19.0845C11.9886 19.0868 11.9948 19.0901 12.003 19.0944C12.0192 19.1031 12.0433 19.1158 12.0746 19.1324C12.1372 19.1655 12.2291 19.214 12.3465 19.2757C12.5814 19.399 12.9185 19.575 13.3281 19.7862C14.147 20.2084 15.257 20.7718 16.4192 21.3356C17.5801 21.8987 18.7993 22.4652 19.835 22.8919C20.3524 23.1051 20.8309 23.2863 21.2375 23.4151C21.6281 23.5388 22.0037 23.6314 22.2926 23.6314V22.6314C22.1713 22.6314 21.9243 22.5836 21.5394 22.4618C21.1704 22.3449 20.7205 22.1752 20.216 21.9673C19.2078 21.5519 18.0096 20.9956 16.8557 20.4358C15.7031 19.8768 14.6008 19.3173 13.7863 18.8974C13.3792 18.6875 13.0443 18.5126 12.8114 18.3903C12.6949 18.3292 12.604 18.2812 12.5423 18.2485C12.5114 18.2322 12.4879 18.2197 12.4722 18.2114C12.4643 18.2072 12.4585 18.2041 12.4547 18.202C12.4527 18.201 12.4515 18.2003 12.4508 18.2C12.4504 18.1998 12.4506 18.1998 12.4509 18.2C12.4512 18.2002 12.4523 18.2008 12.4531 18.2012C12.4555 18.2025 12.6972 18.7664 12.2134 19.14V18.14ZM12.7 28.7207L12.7134 18.6407L11.7134 18.6393L11.7 28.7193L12.7 28.7207ZM13.8816 29.9C13.2291 29.9 12.7 29.3707 12.7 28.72H11.7C11.7 29.924 12.6778 30.9 13.8816 30.9V29.9ZM30.7035 29.9H13.8816V30.9H30.7035V29.9ZM31.886 28.72C31.886 29.3707 31.3577 29.9 30.7035 29.9V30.9C31.909 30.9 32.886 29.924 32.886 28.72H31.886ZM31.8726 18.6407L31.886 28.7207L32.886 28.7193L32.8726 18.6393L31.8726 18.6407Z" fill="black" fill-opacity="0.59"/>
</svg>
